<svg xmlns="http://www.w3.org/2000/svg" viewBox="0 210 1600 210">
  <defs>
    <linearGradient id="hillBack" x1="0" y1="0" x2="0" y2="1">
      <stop offset="0%" stop-color="#9bd679" />
      <stop offset="100%" stop-color="#79b85e" />
    </linearGradient>
    <linearGradient id="hillMid" x1="0" y1="0" x2="0" y2="1">
      <stop offset="0%" stop-color="#82c364" />
      <stop offset="100%" stop-color="#64aa4d" />
    </linearGradient>
    <linearGradient id="hillFront" x1="0" y1="0" x2="0" y2="1">
      <stop offset="0%" stop-color="#6bb454" />
      <stop offset="100%" stop-color="#4d9240" />
    </linearGradient>
  </defs>

  <path
    d="M0 286 C130 236 286 226 444 272 C618 322 786 316 944 270 C1102 224 1280 224 1450 278 C1510 296 1558 300 1600 292 L1600 420 L0 420 Z"
    fill="url(#hillBack)"
  />
  <path
    d="M0 338 C150 300 312 302 468 338 C646 380 836 374 1004 332 C1160 292 1328 296 1600 350 L1600 420 L0 420 Z"
    fill="url(#hillMid)"
  />
  <path
    d="M0 376 C130 348 296 352 462 382 C654 416 862 408 1038 376 C1244 338 1424 346 1600 384 L1600 420 L0 420 Z"
    fill="url(#hillFront)"
  />
  <path
    d="M0 292 C140 244 286 236 446 276 C618 320 786 314 944 272 C1104 230 1278 230 1446 280 L1446 286 C1278 238 1104 236 944 278 C786 320 618 326 446 282 C286 242 140 250 0 298 Z"
    fill="#ffffff"
    fill-opacity="0.16"
  />
</svg>
