<svg xmlns="http://www.w3.org/2000/svg" viewBox="0 0 1600 340" preserveAspectRatio="none">
  <defs>
    <g id="cloud-shape" fill="#ffffff">
      <path d="M17,11c0.34,0,0.67,0.04,1,0.09c-0.28-1.49-1.42-2.68-2.88-2.96c-0.1-1.72-1.51-3.09-3.24-3.13c-1.69-0.04-3.15,1.18-3.47,2.84C7.38,7.58,6.39,7.64,5.5,8.22C4.13,9.11,3.66,10.94,4.44,12.37c0.35,0.65,0.92,1.15,1.6,1.41c-0.14,0.67-0.03,1.37,0.31,1.98c0.74,1.32,2.41,1.8,3.73,1.06c0.34-0.19,0.63-0.44,0.85-0.74c0.69,0.57,1.58,0.88,2.48,0.84c1.62-0.08,2.99-1.22,3.29-2.79c0.11-0.01,0.22-0.02,0.32-0.02c1.66,0,3,1.34,3,3s-1.34,3-3,3H6c-1.66,0-3-1.34-3-3c0-0.23,0.03-0.46,0.08-0.68C2.43,16.29,2,15.68,2,15c0-2.76,2.24-5,5-5c0.34,0,0.68,0.03,1,0.1c0-0.03,0-0.07,0-0.1c0-2.76,2.24-5,5-5c2.47,0,4.53,1.79,4.93,4.15C18.06,9.11,18.13,9.09,18.2,9.09c2.07-0.08,3.81,1.51,3.9,3.58s-1.51,3.81-3.58,3.9c-0.19,0.01-0.38,0.01-0.57-0.02C18.5,16.73,18.86,16.5,19.12,16.19C19.69,15.28,19.72,14.14,19.2,13.2C18.68,12.26,17.73,11.68,16.68,11.66L17,11z" />
      <path d="M19.35,10.04C18.67,6.59,15.64,4,12,4C9.11,4,6.6,5.64,5.35,8.04C2.34,8.36,0,10.91,0,14c0,3.31,2.69,6,6,6h13c2.76,0,5-2.24,5-5C24,12.36,21.93,10.11,19.35,10.04z" />
    </g>
  </defs>

  <g opacity="0.98">
    <use href="#cloud-shape" transform="translate(52 56) scale(10.2 10.2)" />
    <use href="#cloud-shape" transform="translate(612 36) scale(12.6 12.6)" />
    <use href="#cloud-shape" transform="translate(1184 62) scale(11.4 11.4)" />
  </g>

  <g opacity="0.84">
    <use href="#cloud-shape" transform="translate(356 174) scale(7.2 7.2)" />
    <use href="#cloud-shape" transform="translate(1016 186) scale(6.6 6.6)" />
  </g>
</svg>
